<?xml version="1.0" encoding="UTF-8" standalone="no"?>
<!-- Created with Inkscape (http://www.inkscape.org/) -->

<svg
   xmlns:dc="http://purl.org/dc/elements/1.1/"
   xmlns:cc="http://creativecommons.org/ns#"
   xmlns:rdf="http://www.w3.org/1999/02/22-rdf-syntax-ns#"
   xmlns:svg="http://www.w3.org/2000/svg"
   xmlns="http://www.w3.org/2000/svg"
   xmlns:sodipodi="http://sodipodi.sourceforge.net/DTD/sodipodi-0.dtd"
   xmlns:inkscape="http://www.inkscape.org/namespaces/inkscape"
   width="10cm"
   height="10cm"
   viewBox="0 0 100 99.999997"
   version="1.1"
   id="svg36"
   inkscape:version="0.92.4 (5da689c313, 2019-01-14)"
   sodipodi:docname="znak stop.svg">
  <title
     id="title1138">znakstop</title>
  <defs
     id="defs30" />
  <sodipodi:namedview
     id="base"
     pagecolor="#ffffff"
     bordercolor="#666666"
     borderopacity="1.0"
     inkscape:pageopacity="0.0"
     inkscape:pageshadow="2"
     inkscape:zoom="2"
     inkscape:cx="261.76613"
     inkscape:cy="181.33255"
     inkscape:document-units="cm"
     inkscape:current-layer="layer1"
     showgrid="false"
     units="cm"
     showguides="true"
     inkscape:guide-bbox="true"
     inkscape:window-width="958"
     inkscape:window-height="1018"
     inkscape:window-x="953"
     inkscape:window-y="0"
     inkscape:window-maximized="0">
    <sodipodi:guide
       position="49.999999,49.999999"
       orientation="0,1"
       id="guide38"
       inkscape:locked="false"
       inkscape:label=""
       inkscape:color="rgb(0,0,255)" />
    <sodipodi:guide
       position="49.999999,49.999998"
       orientation="1,0"
       id="guide40"
       inkscape:locked="false"
       inkscape:label=""
       inkscape:color="rgb(0,0,255)" />
  </sodipodi:namedview>
  <metadata
     id="metadata33">
    <rdf:RDF>
      <cc:Work
         rdf:about="">
        <dc:format>image/svg+xml</dc:format>
        <dc:type
           rdf:resource="http://purl.org/dc/dcmitype/StillImage" />
        <dc:title>znakstop</dc:title>
      </cc:Work>
    </rdf:RDF>
  </metadata>
  <g
     inkscape:label="Layer 1"
     inkscape:groupmode="layer"
     id="layer1"
     transform="translate(0,-197.00002)">
    <path
       id="path42"
       style="fill:#0000ff;fill-opacity:1;stroke:#ff0000;stroke-width:37.79527664;stroke-miterlimit:4;stroke-dasharray:none;stroke-opacity:1"
       d="M 188.97656,18.898438 A 170.07874,170.07874 0 0 0 18.898438,188.97656 170.07874,170.07874 0 0 0 188.97656,359.05469 170.07874,170.07874 0 0 0 359.05469,188.97656 170.07874,170.07874 0 0 0 188.97656,18.898438 Z m 90.99805,46.46875 h 0.002 c 0.10188,0.0097 0.36287,0.254781 0.27735,0.03906 -0.003,-0.0076 -0.0106,-0.02709 -0.008,-0.01953 0.0367,0.08013 0.0744,0.159289 0.11329,0.238281 0.0234,0.04762 0.0457,0.05369 0.0215,0.04687 0.0389,0.04994 0.0448,0.06694 0.0645,0.117187 -9e-4,-0.0011 -0.007,-0.0012 -0.006,0 0.005,0.0063 0.0106,0.01315 0.0156,0.01953 8.5e-4,0.0022 9.5e-4,0.0016 0.002,0.0039 0.006,0.0078 0.0134,0.01534 0.0195,0.02344 0.005,0.0076 0.0115,0.01405 0.0156,0.02539 5.2e-4,0.0012 -0.005,9.24e-4 -0.004,0.002 0.0147,0.0189 0.032,0.03491 0.0469,0.05078 0.0416,0.05027 0.0727,0.105858 0.10156,0.164063 0.023,0.06425 -0.004,-0.0067 0.043,0.08594 0.01,0.0189 0.0163,0.04014 0.0254,0.06055 -0.003,-0.0038 -0.0118,-0.01928 -0.01,-0.01172 0.004,0.0076 0.0134,0.01601 0.0176,0.02734 7.8e-4,0.0019 -0.004,-0.0013 -0.006,-0.002 0.0765,0.08315 0.13268,0.178384 0.18359,0.279297 0.041,0.04724 0.0726,0.09779 0.10938,0.148438 0.0178,0.02452 0.0324,0.0475 0.0488,0.07031 0.0367,-0.0184 0.0719,0.05707 0.10937,0.121094 0.011,0.01261 0.0243,0.01955 0.0332,0.03711 -0.10432,-0.08995 0.0173,0.01575 0.0195,0.01953 0.008,0.0085 -0.0193,-0.01198 -0.0312,-0.02148 0.0103,0.0065 0.0131,0.01306 0.0195,0.01758 0,0 0.002,0 0.002,0 0.002,0.0011 0.002,0.0048 0.004,0.0059 0.0263,0.0196 0.0359,0.02628 0.0957,0.08008 0.003,0.0052 0.004,0.0093 0.01,0.01758 v 0.002 l 0.002,0.002 c 0.0248,0.01313 0.0354,0.0143 0.0742,0.05273 0.0388,0.03635 0.0742,0.07569 0.10937,0.115235 -0.0233,-0.09745 -0.0933,-0.176833 -0.10156,-0.279297 -5.8e-4,-0.0075 0.002,-0.01424 0.002,-0.02148 -0.007,-0.01368 -0.011,-0.0097 -0.0176,-0.0293 -0.003,-0.01134 -0.0181,-0.123049 0.004,-0.134766 0.0743,-0.03969 0.16135,-0.04688 0.24219,-0.07031 0.10662,0.122456 0.0532,0.03732 0.10156,0.171875 0.003,0.0076 -0.0133,-0.02539 -0.006,-0.02539 0.0102,0.0035 0.01,0.01796 0.0156,0.0293 6.2e-4,9.45e-4 0.003,0 0.004,0 0.005,0.0084 0.009,0.01828 0.0137,0.02734 0.004,0.0024 0.004,0.0088 0.008,0.01172 0.0465,0.03841 0.0565,0.114792 0.10156,0.152344 0.0197,0.06463 0.0759,0.0891 0.11524,0.136719 0.0178,0.02268 0.0326,0.04568 0.0488,0.06836 0.0433,0.08277 0.10835,0.15028 0.15821,0.228516 0.003,0.0044 0.005,0.0092 0.008,0.01367 -0.0126,-0.03723 0.007,-0.05848 0.041,-0.06836 -0.004,-0.0087 -0.008,-0.01782 -0.0137,-0.02539 -0.0147,-0.0189 -0.0328,-0.03932 -0.0469,-0.05859 -0.0162,-0.02308 -0.0155,-0.04985 -0.0254,-0.07227 -0.0184,-0.01283 -0.0462,-0.03176 -0.0312,-0.03711 0.006,-0.0022 0.012,1.47e-4 0.0176,-0.002 -0.0133,-0.03984 -0.0342,-0.07456 -0.0449,-0.125 0.0921,-0.01865 0.18445,-0.03718 0.27539,-0.06055 -0.003,-0.004 -0.006,-0.0077 -0.01,-0.01172 -0.004,-0.0038 0.0197,0.01006 0.0137,0.01172 -0.001,3.18e-4 -0.003,-3.16e-4 -0.004,0 0.0372,0.04463 0.0745,0.08454 0.0996,0.138672 -0.005,-0.0032 -0.0174,-0.01339 -0.0137,-0.0098 0.0855,0.09298 -0.009,-0.0231 0.0781,0.08008 0.0383,0.04536 0.029,0.03699 0.0605,0.08008 0.014,0.0189 0.0288,0.03812 0.043,0.05664 0.0174,0.03024 0.054,0.105531 0.0762,0.13086 0.0363,0.0412 0.0807,0.07757 0.10157,0.130859 -0.005,0.02646 -0.001,0.0015 0.0391,0.05273 0.0106,0.01512 0.0202,0.0259 0.0293,0.04102 0.002,0.0028 0.002,0.0079 0.004,0.01172 0.11055,0.123212 -0.0207,-0.04005 0.0742,0.08203 0.002,0.0025 0.008,0.01354 0.0117,0.01953 0.0377,0.03782 0.0644,0.07777 0.10547,0.111328 0.0159,0.02268 0.0322,0.04253 0.0469,0.06445 0.007,0.01134 0.0108,0.02174 0.0176,0.0293 0.0189,0.03024 0.0684,0.06251 0.0937,0.08594 0.0185,0.02268 0.0353,0.04882 0.0547,0.07227 0.0132,0.01512 0.0441,0.03169 0.0586,0.04492 0.0378,0.03024 0.0431,0.03787 0.0781,0.07227 0.0431,0.04233 0.0815,0.0908 0.12695,0.130859 0.0136,0.01134 0.0309,0.01796 0.0449,0.0293 0.0241,0.01991 0.0324,0.03427 0.043,0.04687 0.004,8.98e-4 0.0118,0.0069 0.0176,0.0098 0.0189,0.01134 0.0393,0.02319 0.0566,0.03906 0.0395,0.03402 0.0928,0.106544 0.13672,0.126953 0.013,0.01371 0.0465,0.03238 0.0391,0.03711 -0.0252,-0.0074 -0.0666,-0.05597 -0.0547,-0.03711 0.009,0.01474 0.0243,0.02509 0.0352,0.03906 0.005,0.0026 0.0171,0.0069 0.0312,0.01563 -0.004,-0.0066 -0.009,-0.0085 -0.008,-0.01367 0.0202,0.01668 0.0911,0.114717 0.0332,0.0332 0.004,0.005 0.009,0.01059 0.0137,0.01563 0.003,0.0033 0.007,0.0064 0.01,0.0098 l 0.002,0.002 c 0.003,0.0026 0.007,0.0053 0.01,0.0078 0.0115,0.01192 -0.001,-0.0014 0.004,0.0039 0.01,0.0076 0.019,0.01562 0.0274,0.02539 0.006,-0.0013 0.0177,0.0093 0.0234,0.01563 0.003,0.0044 0.009,0.0091 0.0117,0.01367 0.003,0.0039 0.018,0.0071 0.0137,0.01172 -0.002,0.0016 -0.006,0.0023 -0.008,0.0039 0.0172,0.02621 0.0339,0.0534 0.0508,0.08008 -0.089,0.03955 -0.17659,0.07955 -0.26562,0.119141 0.008,0.01067 0.0189,0.01961 0.0254,0.03125 0.005,0.0076 -0.0171,-0.01197 -0.0254,-0.01953 -0.003,-0.0025 -0.007,-0.0054 -0.01,-0.0078 -10e-4,5.93e-4 -0.003,0.0014 -0.004,0.002 9.3e-4,0.0028 0.004,0.0096 0.002,0.0059 -0.0279,-0.0264 -0.0336,-0.03731 -0.043,-0.04687 l -0.002,-0.002 c -0.003,-0.0026 -0.01,-0.0078 -0.008,-0.0059 -0.002,-0.0024 -0.007,-0.01097 -0.01,-0.01367 -0.009,-0.01009 -0.0192,-0.01593 -0.043,-0.04492 l 0.0293,0.03516 c -0.01,-0.0068 -0.0205,-0.01515 -0.0293,-0.01758 0.0227,0.03262 0.0308,0.04702 0.043,0.06836 l 0.002,0.002 c 0.0278,0.02556 0.0581,0.04608 0.084,0.07227 0.0197,0.0189 0.0323,0.04367 0.0508,0.06445 0.005,0.0038 0.0139,0.004 0.0195,0.0078 0.037,0.02268 0.042,0.03075 0.0781,0.0625 0.039,0.03024 0.0652,0.07649 0.10351,0.109375 0.004,0.0036 -0.0121,-0.0194 -0.008,-0.01563 0.0189,0.01134 0.0355,0.02747 0.0527,0.04297 0.01,0.0076 -0.0217,-0.01588 -0.0312,-0.02344 0.0276,0.03024 0.0565,0.05917 0.084,0.08789 0.004,0.0076 0.0155,0.02514 0.0117,0.01758 -0.0284,-0.05027 -0.0237,-0.03351 0.0273,0.01563 0.007,0.0076 -0.0286,-0.01953 -0.0195,-0.01953 0.0128,-1.51e-4 0.0219,0.01575 0.0332,0.01953 9e-5,-0.0014 -10e-4,-0.0039 0,-0.0039 0.12405,0.07937 0.0395,0.01829 0.13867,0.132812 0.0106,0.01134 -0.0186,-0.0255 -0.0273,-0.04102 0.005,0.0062 0.0107,0.01299 0.0156,0.01953 0.0212,0.01512 0.0356,0.04007 0.0547,0.05859 0.009,0.0076 -0.0321,-0.03868 -0.0234,-0.02734 0.02,0.0189 0.038,0.04323 0.0586,0.0625 0.009,0.0076 -0.0159,-0.01796 -0.0234,-0.0293 0.0189,0.02268 0.0378,0.04134 0.0566,0.0625 -0.008,-0.01134 -0.0348,-0.04183 -0.0254,-0.03125 0.01,0.01008 0.0195,0.0219 0.0293,0.0332 0.0197,0.0189 0.0372,0.04089 0.0566,0.06055 0.0101,0.0114 0.0212,0.02217 0.0312,0.0332 -0.008,-0.01134 -0.0292,-0.01991 -0.0254,-0.03125 0.003,-0.01134 0.0206,0.01197 0.0293,0.01953 0.0159,0.01134 0.032,0.02199 0.0469,0.03711 0.042,0.0378 0.0612,0.05287 0.10352,0.0918 0.0845,0.114898 0.008,0.0155 0.008,0.01172 8e-5,-0.01134 0.0144,0.01184 0.0234,0.01563 10e-4,5.29e-4 5.1e-4,-0.0039 0.002,-0.0039 0.0265,0.01512 0.0503,0.03252 0.0762,0.04687 0.0215,0.03024 0.0447,0.05879 0.0664,0.08789 -0.005,-0.008 -0.007,-0.01283 -0.0137,-0.02344 -0.002,-0.01134 0.0225,0.02318 0.0293,0.01562 0.0923,0.06501 0.0953,0.05966 0.0508,0.0332 -0.2697,-0.151559 0.16899,0.427784 -0.10937,0.292968 -0.008,-0.0038 -0.13603,-0.07371 -0.0449,-0.03516 -0.0869,-0.03619 -0.0949,-0.0463 -0.15821,-0.107422 -0.006,-0.008 -0.01,-0.0127 -0.0156,-0.01953 -0.004,-0.0032 -0.0129,-0.0045 -0.0117,-0.0098 6.6e-4,-0.0025 0.004,0.0032 0.008,0.0039 -0.004,-0.0049 -0.009,-0.01214 -0.0117,-0.01563 -0.0486,-0.02109 -0.0928,-0.03883 -0.13281,-0.08789 0.007,0.0038 0.0287,0.01928 0.0215,0.01172 -0.0204,-0.01512 -0.0425,-0.02747 -0.0625,-0.04297 -0.01,-0.0076 -0.0183,-0.01783 -0.0273,-0.02539 -0.0359,-0.03401 -0.0815,-0.05255 -0.11133,-0.09375 0.0102,0.0076 0.0405,0.03478 0.0312,0.02344 -0.19328,-0.192378 0.0991,0.105618 -0.0957,-0.08789 -0.009,-0.0076 0.0211,0.01394 0.0312,0.02148 -0.0208,-0.0189 -0.0419,-0.03774 -0.0625,-0.05664 0.0106,0.0076 0.0429,0.0349 0.0332,0.02734 -0.009,-0.0093 -0.0191,-0.0189 -0.0293,-0.02734 -0.20013,-0.185575 0.11505,0.112875 -0.10352,-0.09766 0.0323,0.03052 -0.002,-0.0072 -0.0176,-0.02344 -0.004,-0.005 -0.0105,-0.0038 -0.01,-0.0078 0.003,-0.0076 0.14783,0.07758 -0.0215,-0.0078 0.003,0.0045 0.007,0.0086 0.01,0.01367 0.008,0.01134 0.0147,0.02394 0.0215,0.03906 -0.006,0.06954 0.0353,0.162054 -0.0176,0.207031 -0.0318,0.02712 -0.0742,0.03067 -0.11914,0.02734 0.0185,0.0179 0.0385,0.03266 0.0566,0.05469 7.8e-4,9.45e-4 -10e-4,-0.0039 0,-0.0039 0.003,0 0.01,0.0042 0.008,0.0039 -0.007,-0.0076 -0.0159,-0.01002 -0.0234,-0.01758 0.0692,0.04384 0.0952,0.03719 0.14062,0.121094 0.0132,0.02646 0.0115,0.05482 0.0176,0.08203 0.0636,0.30274 -0.40266,-0.291251 -0.3125,0.0039 0.0218,0.07161 0.0234,0.07566 0.0254,0.07227 -0.0146,-0.0063 -0.0296,-0.01183 -0.043,-0.01953 -0.0121,-0.0064 -0.0276,-0.02678 -0.0449,-0.04492 0.0249,0.03039 0.0463,0.0582 0.0625,0.0918 0.002,0.0012 0.002,0.0041 0.004,0.0059 0.005,0.01022 0.0119,0.01489 0.0176,0.02734 0.002,0.0053 -0.003,-0.0081 -0.006,-0.01563 -0.003,-0.0026 -0.002,-0.0044 -0.004,-0.0059 -0.003,-0.0065 -0.002,-0.0078 -0.004,-0.01172 0.004,0.005 0.005,0.0093 0.0117,0.01758 0.0118,0.01143 0.0241,0.02159 0.0371,0.03125 0.0142,0.01317 0.0301,0.02492 0.041,0.04102 0.002,0.0024 0.003,0.0053 0.004,0.0078 0.002,0.0019 0.011,0.0091 0.0117,0.0098 0.0136,0.01512 0.0199,0.03296 0.0293,0.04883 0.0616,0.107097 -0.005,0.104276 -0.0879,0.08398 0.009,0.01958 0.0267,0.0386 0.041,0.07031 0.12763,0.281952 -0.16762,0.410959 -0.28516,0.125 -0.0682,-0.165923 -0.0264,-0.06911 -0.22461,-0.394532 -0.0296,-0.04863 -0.0638,-0.09418 -0.0937,-0.142578 -0.0589,-0.03047 -0.16059,-0.07738 -0.0234,-0.0332 -0.002,-0.004 -0.005,-0.0077 -0.008,-0.01172 -0.007,-0.0056 -0.0141,-0.012 -0.0215,-0.01758 -0.0147,-0.01879 -0.0312,-0.03385 -0.0449,-0.05273 -0.002,-0.0024 0.002,-0.0078 0,-0.0078 -0.0102,-0.01512 -0.0234,-0.02709 -0.0351,-0.04297 -0.004,-0.0038 -0.0181,-0.01745 -0.0117,-0.01367 0.015,0.0036 0.0476,0.02988 0.041,0.02344 -4.8e-4,-7.64e-4 -0.001,-0.0012 -0.002,-0.002 -0.0988,-0.08672 -0.0579,-0.01867 -0.1289,-0.132813 -8.7e-4,-0.0013 0.002,3.85e-4 0.004,0 -0.0718,-0.107716 0.13521,0.123541 -0.0488,-0.06055 -0.009,-0.0076 0.0385,0.03478 0.0293,0.02344 -0.0197,-0.0189 -0.041,-0.03692 -0.0605,-0.05469 -0.009,-0.0076 0.0207,0.01405 0.0312,0.02539 -0.0208,-0.0189 -0.0418,-0.03692 -0.0625,-0.05469 0.0106,0.0076 0.041,0.03295 0.0312,0.02539 -0.02,-0.0189 -0.0422,-0.03812 -0.0625,-0.05664 -0.009,-0.0076 0.038,0.03478 0.0293,0.02344 -0.0355,-0.0378 -0.0981,-0.08498 -0.0352,-0.0332 -0.0193,-0.0189 -0.0418,-0.03466 -0.0586,-0.05469 -0.01,-0.01134 0.0489,0.03749 0.0371,0.02539 -0.0204,-0.0189 -0.0415,-0.03377 -0.0625,-0.05078 0.0174,0.01134 0.0684,0.0499 0.0527,0.03516 -0.0223,-0.0189 -0.12259,-0.0962 -0.0723,-0.05273 -0.0254,-0.02928 -0.0384,-0.04743 -0.0527,-0.06641 -0.0433,0.130334 -0.20112,0.167475 -0.28125,-0.0332 h -0.002 c -0.0462,-0.116034 -0.14813,-0.20403 -0.18555,-0.324219 -0.006,-0.0189 -4.5e-4,-0.04474 -0.0117,-0.0625 -0.0959,-0.153979 -0.19779,-0.304257 -0.29882,-0.455078 -0.0118,-0.01364 -0.0236,-0.02717 -0.0352,-0.04102 -0.006,-0.0067 -0.0145,-0.0099 -0.0195,-0.01758 -0.002,-0.0031 -0.002,-0.0066 -0.004,-0.0098 -0.002,-0.0031 -0.006,-0.0046 -0.008,-0.0078 0.0499,0.02268 -0.006,-0.0011 -0.0606,-0.04883 -0.01,-0.0076 -0.0155,-0.02174 -0.0234,-0.0293 h 0.002 c -0.0181,-0.02646 -0.0389,-0.05164 -0.0566,-0.07813 -9.3e-4,-0.0014 0.004,0.0015 0.006,0.002 -0.006,-0.0092 -0.0174,-0.02013 -0.0195,-0.03125 -0.004,-0.0043 -0.006,-0.0094 -0.01,-0.01367 -8.7e-4,-0.001 -0.003,-6.55e-4 -0.004,-0.002 l -0.002,-0.002 c -0.002,-0.0025 -0.006,-0.0054 -0.008,-0.0078 -0.004,-0.0057 -0.006,-0.01197 -0.01,-0.01758 -0.0219,-0.02077 -0.0463,-0.03852 -0.0644,-0.0625 -0.0104,-0.0104 -0.0485,-0.0576 -0.0547,-0.07227 10e-4,0.001 0.003,0.0013 0.004,0.002 -0.006,-0.0069 -0.0192,-0.02096 -0.0215,-0.02344 -0.003,-0.0027 -0.005,-0.005 -0.008,-0.0078 -0.003,-0.0028 -0.007,-0.005 -0.01,-0.0078 -9.4e-4,-9.15e-4 -0.009,-0.0052 -0.008,-0.0039 -0.004,-0.0037 -0.008,-0.009 -0.0117,-0.01172 -0.0206,-0.02023 -0.0212,-0.03099 -0.0254,-0.03516 -0.0483,-0.03578 -0.0966,-0.0932 -0.15234,-0.08008 -0.20055,0.04627 -0.19226,-0.118698 -0.084,-0.216797 -0.006,-0.0094 -0.01,-0.02117 -0.0117,-0.02539 v -0.002 c -0.003,-0.0045 -0.012,-0.01286 -0.0156,-0.01758 -0.0133,-0.01205 -0.0257,-0.02368 -0.0391,-0.03516 -0.009,-0.01134 -0.0156,-0.02382 -0.0254,-0.03516 -0.006,-0.0076 0.0162,0.02722 0.01,0.02344 -0.0537,-0.03912 -0.0884,-0.102446 -0.1211,-0.160156 -0.0208,-0.01324 -0.0416,-0.02546 -0.0547,-0.04687 -0.0162,-0.02646 -0.0542,-0.184694 -0.0215,-0.05469 -0.004,-0.0036 -0.008,-0.005 -0.0117,-0.0098 0.002,0.002 -0.003,-0.0033 -0.006,-0.0059 -0.005,-0.0075 -0.0113,-0.01084 -0.0176,-0.01563 -0.0317,-0.02928 -0.0505,-0.06168 -0.0586,-0.09375 -8.5e-4,-0.0013 -7.6e-4,-0.0024 -0.002,-0.0039 v -0.002 c -0.0125,-0.01015 -0.0294,-0.01124 -0.0312,-0.02539 -0.011,-0.07483 -0.0384,-0.173271 0.0156,-0.226562 0.016,-0.01569 0.0427,-0.0061 0.0645,-0.0078 -0.0558,-0.08006 -0.11295,-0.159259 -0.1621,-0.242187 -0.019,-0.01466 -0.0391,-0.02815 -0.043,-0.03125 -0.0447,-0.04838 -0.095,-0.08204 -0.14063,-0.128906 -0.007,-0.0076 0.0192,0.0121 0.0215,0.02344 0.002,0.0076 -0.0146,-0.0079 -0.0195,-0.01172 -0.0131,-0.01373 -0.0249,-0.02951 -0.0371,-0.04492 -0.05,-0.02081 -0.11608,-0.0664 -0.14454,-0.0918 -0.0336,-6.46e-4 -0.002,0.0018 -0.0645,-0.05273 -0.006,-0.0038 0.0255,0.01758 0.0176,0.01758 -0.011,-8.69e-4 -0.0179,-0.0138 -0.0273,-0.01758 -0.003,-0.0017 0.009,0.01161 0.006,0.0078 -0.0261,-0.01512 -0.0508,-0.03541 -0.0762,-0.05469 0.005,0.01 -0.0157,-0.01862 -0.0176,-0.02148 -0.0179,-0.009 -0.0358,-0.01803 -0.0547,-0.02344 -0.0591,-0.03024 -0.10503,-0.07926 -0.14453,-0.101562 -0.003,-0.0019 0.004,0.0078 0.006,0.0078 -0.13357,-0.09789 -0.0755,-0.04933 -0.041,-0.0293 0.23808,0.128977 -0.0781,-0.293047 0.0273,-0.314453 0.0151,-0.0031 0.039,0.0015 0.0742,0.01758 0.0102,0.0038 0.15318,0.08253 0.0527,0.03906 0.0278,0.01376 0.0928,0.04282 0.12109,0.07422 8e-4,4.44e-4 0.005,0.0034 0.006,0.0039 0,0 0,-0.002 0,-0.002 -0.0103,-0.02206 -0.0197,-0.0427 -0.0293,-0.06445 -0.0193,-0.03402 -0.0349,-0.06578 -0.0605,-0.09375 -0.006,-0.0076 -0.0158,-0.01197 -0.0215,-0.01953 -0.0253,-0.03024 -0.0374,-0.05224 -0.0566,-0.08398 -0.0418,-0.04044 -0.0565,-0.100691 -0.0625,-0.15625 -0.002,-0.0189 0.0133,0.0385 0.0137,0.05664 8e-5,0.01134 -0.01,-0.02369 -0.0195,-0.03125 -0.0412,-0.06387 -0.0699,-0.128479 -0.10351,-0.197266 -0.0348,-0.07106 -0.0694,-0.134591 -0.0899,-0.210937 -0.0201,-0.07465 -0.005,-0.09698 0.0293,-0.09375 z m 0.31445,1.169921 c -0.0102,-0.01134 0.0121,0.02772 0.0234,0.03906 0.004,0.0038 0.006,0.0039 0.0137,0.0078 -0.008,-0.01171 -0.004,-0.01176 -0.0371,-0.04687 z m 0.3125,0.22461 c 0.005,0.0076 0.008,0.01783 0.0156,0.02539 0.004,0.0042 0.006,0.0051 0.0137,0.0098 -0.01,-0.01215 -0.0196,-0.02345 -0.0293,-0.03516 z m 3.4668,3.070312 c 0.006,0.01408 0.0189,0.02324 0.0254,0.04102 0.005,0.01134 -0.004,-0.03453 -0.0176,-0.03906 -0.002,-6.83e-4 -0.005,-0.0012 -0.008,-0.002 z m 0.56445,0.416016 c 10e-4,9.59e-4 0.009,0.0084 0.0156,0.01563 0.011,0.0058 0.026,0.0098 0.0195,0.0078 -0.0155,-0.0054 -0.022,-0.01794 -0.0352,-0.02344 z m -0.74804,0.132812 c -0.008,-0.006 0.008,-5.08e-4 0.0215,0.0059 l 0.002,0.002 c 0.008,0.01071 -7e-5,-0.0099 0.0137,0.01367 0.001,0.0019 -0.0237,-0.01197 -0.0371,-0.02148 z"
       transform="matrix(0.26458333,0,0,0.26458333,0,197.00002)" />
    <circle
       style="fill:#0000ff;fill-opacity:1;stroke:#ffffff;stroke-width:0.44475138;stroke-miterlimit:4;stroke-dasharray:none;stroke-opacity:1"
       cy="247.00002"
       cx="49.749996"
       id="circle857"
       r="40.027622" />
    <g
       id="g855"
       transform="rotate(-45,50,247)">
      <rect
         y="242.00002"
         x="5"
         height="10"
         width="90"
         id="rect849"
         style="fill:#ff0000;fill-opacity:1;stroke:none;stroke-width:9.59544849;stroke-miterlimit:4;stroke-dasharray:none;stroke-opacity:1" />
      <rect
         transform="rotate(-90)"
         style="fill:#ff0000;fill-opacity:1;stroke:none;stroke-width:9.59544849;stroke-miterlimit:4;stroke-dasharray:none;stroke-opacity:1"
         id="rect851"
         width="90"
         height="10"
         x="-292"
         y="45" />
    </g>
    <path
       style="fill:none;stroke:#ffffff;stroke-width:0.49999999;stroke-linecap:butt;stroke-linejoin:miter;stroke-opacity:1;fill-opacity:1;stroke-miterlimit:4;stroke-dasharray:none"
       d="M 18.080845,271.84393 42.924759,247.00002 18.083367,222.15863"
       id="path861"
       inkscape:connector-curvature="0" />
    <path
       inkscape:connector-curvature="0"
       id="path869"
       d="M 82.015978,271.84393 57.172064,247.00002 82.013456,222.15863"
       style="fill:none;fill-opacity:1;stroke:#ffffff;stroke-width:0.5;stroke-linecap:butt;stroke-linejoin:miter;stroke-miterlimit:4;stroke-dasharray:none;stroke-opacity:1" />
    <path
       style="fill:none;fill-opacity:1;stroke:#ffffff;stroke-width:0.5;stroke-linecap:butt;stroke-linejoin:miter;stroke-miterlimit:4;stroke-dasharray:none;stroke-opacity:1"
       d="m 74.843909,279.06755 -24.84391,-24.84392 -24.84139,24.84139"
       id="path871"
       inkscape:connector-curvature="0" />
    <path
       inkscape:connector-curvature="0"
       id="path873"
       d="m 25.156089,215.02855 24.84391,24.84392 24.84139,-24.8414"
       style="fill:none;fill-opacity:1;stroke:#ffffff;stroke-width:0.5;stroke-linecap:butt;stroke-linejoin:miter;stroke-miterlimit:4;stroke-dasharray:none;stroke-opacity:1" />
    <rect
       style="fill:#ff0000;fill-opacity:1;stroke:#ff0000;stroke-width:0.5;stroke-miterlimit:4;stroke-dasharray:none;stroke-opacity:1"
       id="rect1114"
       width="3.1337352"
       height="1.0757599"
       x="23.011906"
       y="212.1553" />
    <rect
       style="fill:#ff0000;fill-opacity:1;stroke:#ff0000;stroke-width:1.32400262;stroke-miterlimit:4;stroke-dasharray:none;stroke-opacity:1"
       id="rect1116"
       width="0.51126635"
       height="1.048068"
       x="-547.4342"
       y="606.76373"
       transform="matrix(0.99993553,-0.01135497,0.93930924,0.34307165,0,0)" />
    <ellipse
       style="fill:#ff0000;fill-opacity:1;stroke:#ff0000;stroke-width:0.5;stroke-miterlimit:4;stroke-dasharray:none;stroke-opacity:1"
       id="path1118"
       cx="24.881332"
       cy="214.68393"
       rx="0.062850103"
       ry="0.11108389" />
    <rect
       style="fill:#ff0000;fill-opacity:1;stroke:#ff0000;stroke-width:0.5;stroke-miterlimit:4;stroke-dasharray:none;stroke-opacity:1"
       id="rect1122"
       width="0.2747865"
       height="0.020462824"
       x="-102.92162"
       y="190.37675"
       transform="rotate(-35)" />
    <rect
       style="fill:#ff0000;fill-opacity:1;stroke:#ff0000;stroke-width:0.5;stroke-miterlimit:4;stroke-dasharray:none;stroke-opacity:1"
       id="rect1124"
       width="0.72723377"
       height="0.52918416"
       x="-116.76744"
       y="195.14166"
       transform="rotate(-50)" />
    <rect
       style="fill:#ff0000;fill-opacity:1;stroke:#ff0000;stroke-width:0.5;stroke-miterlimit:4;stroke-dasharray:none;stroke-opacity:1"
       id="rect1126"
       width="0.84335935"
       height="0.8764323"
       x="-80.220589"
       y="222.37993"
       transform="rotate(-40)" />
    <rect
       style="fill:#ff0000;fill-opacity:1;stroke:#ff0000;stroke-width:0.5;stroke-miterlimit:4;stroke-dasharray:none;stroke-opacity:1"
       id="rect1128"
       width="1.0631865"
       height="1.4758807"
       x="-156.21617"
       y="237.31808"
       transform="rotate(-50)" />
    <rect
       style="fill:#ff0000;fill-opacity:1;stroke:#ff0000;stroke-width:0.5;stroke-miterlimit:4;stroke-dasharray:none;stroke-opacity:1"
       id="rect1130"
       width="1.1079427"
       height="1.3063802"
       x="-122.59546"
       y="261.62558"
       transform="rotate(-40)" />
    <rect
       style="fill:#ff0000;fill-opacity:1;stroke:#ff0000;stroke-width:0.5;stroke-miterlimit:4;stroke-dasharray:none;stroke-opacity:1"
       id="rect1132"
       width="1.0252604"
       height="1.2236979"
       x="-198.67479"
       y="198.11092"
       transform="rotate(-50)" />
    <rect
       style="fill:#ff0000;fill-opacity:1;stroke:#ff0000;stroke-width:0.5;stroke-miterlimit:4;stroke-dasharray:none;stroke-opacity:1"
       id="rect1134"
       width="0.95911455"
       height="0.77721351"
       x="-162.07368"
       y="219.33289"
       transform="rotate(-40)" />
    <rect
       style="fill:#ff0000;fill-opacity:1;stroke:#ff0000;stroke-width:0.5;stroke-miterlimit:4;stroke-dasharray:none;stroke-opacity:1"
       id="rect1136"
       width="0.78343379"
       height="1.0523738"
       x="-158.80582"
       y="155.364"
       transform="rotate(-50)" />
  </g>
</svg>
